<svg viewBox="0 0 523 731" xmlns="http://www.w3.org/2000/svg"><g fill="none" fill-rule="evenodd"><g fill-rule="nonzero"><g transform="translate(133 101)"><path d="M390 135l-105-30L255 0H45C20 0 0 20 0 45v422c0 25 20 45 45 45h300c25 0 45-20 45-45V135z" fill="#3C6797"/><circle fill="#FFF5F5" cx="75" cy="256" r="15"/><circle fill="#FFF5F5" cx="75" cy="316" r="15"/><circle fill="#FFF5F5" cx="75" cy="376" r="15"/></g><path d="M523 236v332c0 25-20 45-45 45H328V101h60l30 105 105 30z" fill="#305783"/><path d="M418 372H268a15 15 0 110-30h150a15 15 0 110 30zM418 432H268a15 15 0 110-30h150a15 15 0 110 30zM418 492H268a15 15 0 110-30h150a15 15 0 110 30z" fill="#FFF5F5"/><g fill="#E3E7EA"><path d="M328 492h90a15 15 0 100-30h-90v30zM328 432h90a15 15 0 100-30h-90v30zM328 372h90a15 15 0 100-30h-90v30z"/></g><path d="M523 236H418c-16 0-30-13-30-30V101c4 0 8 2 10 5l120 120c4 2 5 6 5 10z" fill="#4476AD"/></g><text font-family="RobotoMonoForPowerline-Medium, Roboto Mono Medium for Powerline" font-size="80" font-weight="400" letter-spacing=".2" fill="#3C6797" transform="translate(-6 -12)"><tspan x=".4" y="74">&lt;form&gt;</tspan></text><text font-family="RobotoMonoForPowerline-Medium, Roboto Mono Medium for Powerline" font-size="80" font-weight="400" letter-spacing=".2" fill="#3C6797" transform="translate(-6 -12)"><tspan x=".4" y="738">&lt;/form&gt;</tspan></text><path d="M6 108v497" stroke-opacity=".4" stroke="#3C6797" stroke-width="7" stroke-linecap="square"/></g></svg>