<svg viewBox="0 0 260 70" xmlns="http://www.w3.org/2000/svg"><g fill="none" fill-rule="evenodd"><path fill="#FFE42F" d="M0 0h260v70H0z"/><text font-family="Avenir-Black, Avenir" font-size="34" font-weight="700" letter-spacing=".18" fill="#3C444F" transform="translate(32 13)"><tspan x="130" y="34">262</tspan></text><g fill-rule="nonzero"><path d="M48.08 45.6c-.36.05.2-.08 1.77-1.02l.44-.28c.6-.33 1.18-.71 1.7-1.12-1.54 1.48-3.44 2.42-3.91 2.42zm-6.82-20.45a9.19 9.19 0 00-5.55 3.58 7.38 7.38 0 013.32-2.34l-.3.22c-.92.52-1.75 1.19-2.52 1.98-.2.25-.3.58-.5.8l-.4.6c-.53.5-.86 1.1-1.22 1.74a11.86 11.86 0 00.74 10.92c-3.75-5.17-2.26-12.54 2.15-15.82a10.84 10.84 0 016.08-2.28c-.56.16-1.2.36-1.8.6zm-7.15 12.06c-.22-1.38-.27-2.78.03-4.16-.03.28-.05.5-.03.6-.13 1.68 0 3.06.14 3.94a1.59 1.59 0 01-.14-.38c.06.27.14.52.22.77.14.63.25.88.23.63a10.7 10.7 0 005.85 6c-2.46-.28-5.72-3.6-6.3-7.4zm17.75-10.57c-1.02-1.54-2.98-2.45-4.88-3.05-5.6-2.2-13.58 2-14.77 9.24-.08.33-.2 1.1-.17 1.68.5-4.43 3.2-8.31 6.85-9.96 3.61-1.74 7.86-1.43 10.79.63l.44.36c-.5-.28-1.05-.5-1.6-.66a10.5 10.5 0 00-6.65-.83c-4.58.72-8.75 4.9-9.47 10.07-.05.33-.1.7-.1 1.02-.15-.1-.23-.36-.23-.66-.08.36-.08.72-.05 1.07-.06 1.66.33 3.39 1.02 4.98-.28-.82-.44-1.65-.53-2.47a10.1 10.1 0 002.07 4.43c.7.69 1.47 2.23 2.38 2.72 3.53 2.78 8.88 3.74 12.47 1.68.5-.14 1-.27 1.44-.52-.58.2-1.22.33-1.74.5h-.17c-.14.08-.22.13-.3.16-2.68.33-8.12.93-11.48-1.9a10.77 10.77 0 01-2.38-2.5c.36.24.91.57 1.27.93 1.69 1.68 4.03 3.22 6.3 3.39a18.62 18.62 0 01-2.93-1.54c-.52-.25-1.32-.36-1.71-.8-2.13-1.8-3.92-3.66-4.25-6.41-.06-.28.14-.5.03-.75.52 3.08 2.45 5.34 4.88 7.16.33.38.7.55 1.02.8.42.16.8.3 1.1.46 3.6 1.35 4.26-.13 7.49-.16-1.47.36-3.95 1.04-5.2 1.13 2.27.46 6.55-.7 8.5-2.12 2.44-1.65 1.94-1.74 3.21-3.83.11-.16.22-.58.3-1.04.78-1.46 1.19-3.11 1.19-4.87a10.88 10.88 0 00-4.14-8.34zM39.25 47.22c-.97-.69-2.21-1.6-3.12-2.48a13.4 13.4 0 01-3.12-4.2 11.64 11.64 0 002.87 4.56c1.05.86 2.18 1.57 3.37 2.12z" fill="#EE8421"/><path d="M73.4 32.99c0-2.24 0-4.46-3.51-4.46-3.48 0-3.93 2.1-3.93 4.46h7.44zm-7.41 4.7c0 3.41 2.23 4.23 5.71 4.23h5.8V47h-6.72C63.93 47 60 44.65 60 35.75 60 28.05 61.28 24 70.2 24c7.07 0 8.8 2.84 8.8 8.99v4.75l-13.01-.05zM122.24 24H102v23h5.07V28.92h3.57c1.2 0 2.21.9 2.32 2.05V47h5.08V28.92h3.53a2.34 2.34 0 012.36 2.3v15.75H129V30.53c0-3.6-3.03-6.53-6.76-6.53M89.48 28.92H99V24H88.58a6.7 6.7 0 00-6.52 5.69H82v10.7h.06l-.06.05A6.68 6.68 0 0088.58 47h10.4v-4.95h-9.52a2.35 2.35 0 01-2.38-2.3v-8.53c0-1.26 1.08-2.3 2.4-2.3M143.9 42.18h-7.22c-.45 0-.73 0-.76-.33-.34-3 1.55-2.89 7.99-5.04v5.37zm5.1-11.61a6.68 6.68 0 00-6.78-6.57h-10.15v4.9h9.48c1.6 0 2.36 1.04 2.36 2.3 0 0 0 .35-.76.92-.96.74-4.98 1.8-7.17 2.64-3.4 1.12-4.98 3.17-4.98 6.4 0 4.2 1.91 5.84 5.68 5.84H149c-.11-2.45 0-16.43 0-16.43z" fill="#3C444F"/></g></g></svg>