<svg viewBox="0 0 823 823" xmlns="http://www.w3.org/2000/svg"><g fill-rule="nonzero" fill="none"><g fill="#000"><path d="M412 823l-7-1L10 650c-6-3-10-9-10-16V189c0-7 4-13 10-16L405 1h13l395 172c6 3 10 9 10 16v445c0 7-4 13-10 16L418 822l-6 1zM34 623l378 164 377-164V200L412 36 34 200v423z"/><path d="M806 652l-7-1-387-169L24 651a17 17 0 01-14-32l395-172h13l395 172c8 4 12 14 9 23-3 6-10 10-16 10z"/><path d="M411 480c-9 0-17-8-17-17V17c0-9 8-17 17-17s17 8 17 17v446c0 9-8 17-17 17z"/></g><g transform="translate(104 226)"><path fill="#386583" d="M73 0h468v372H73z"/><circle fill="#FCD462" cx="143.5" cy="75.5" r="33.5"/><path fill="#398F59" d="M313 564L0 428l238-282 159 188 116 138z"/><path fill="#45BE72" d="M659 409L309 563l-143-63 110-146 183-245z"/></g><path d="M499 384l-3-3-128-72a8 8 0 00-12 7v144a8 8 0 0012 7l128-72c4-2 5-7 3-11zm-127 62V330l104 58-104 58zM332 548v-16h-16v16H204v16h112v16h16v-16h288v-16z" fill="#000"/><path d="M412 260a128 128 0 100 256 128 128 0 000-256zm0 240a112 112 0 110-224 112 112 0 010 224z" fill="#000"/><path d="M628 212H196c-13 0-24 11-24 24v352c0 13 11 24 24 24h432c13 0 24-11 24-24V236c0-13-11-24-24-24zm8 376c0 4-4 8-8 8H196c-4 0-8-4-8-8V236c0-4 4-8 8-8h432c4 0 8 4 8 8v352z" fill="#000"/></g></svg>