<svg viewBox="0 0 4992 1523" xmlns="http://www.w3.org/2000/svg"><g fill="none" fill-rule="evenodd"><text font-family="Rubik-Medium, Rubik" font-size="500" font-weight="400" letter-spacing="22.2" fill="#69F0AE" transform="translate(-1)"><tspan x="3269" y="1428">librar</tspan> <tspan x="4679.3" y="1428" letter-spacing="18.5">y</tspan></text><path d="M1138 926c-6 0-11-2-15-6-5-5-7-10-7-16V296c0-7 2-13 6-17s10-7 16-7h251c75 0 134 18 177 54 43 35 65 87 65 155 0 67-22 118-65 152-43 35-102 52-177 52h-138v219c0 7-2 12-6 16s-10 6-17 6h-90zm246-345c36 0 64-9 83-26s28-42 28-75-9-58-27-76c-19-18-47-27-84-27h-134v204h134zm553 355c-73 0-130-19-170-57-40-37-61-89-64-155l-1-41 1-41c3-65 24-117 65-154 40-38 97-57 169-57s128 19 168 57c41 37 62 89 65 154a590 590 0 010 82c-3 66-24 118-64 155-40 38-96 57-169 57zm0-95c33 0 58-10 76-31 18-20 27-50 29-90a450 450 0 000-73c-2-40-11-70-29-91a95 95 0 00-76-31c-33 0-59 10-77 31s-27 51-29 91v73c2 40 11 70 29 90 18 21 44 31 77 31zm361 85c-6 0-11-2-15-6-5-5-7-10-7-16V285c0-6 2-12 7-16 4-4 9-6 15-6h79c7 0 12 2 16 6s6 10 6 16v619c0 6-2 11-6 16-4 4-9 6-16 6h-79zm313 178c-5 0-9-2-13-6s-6-8-6-13l3-15 74-173-179-423c-3-6-4-10-4-13 1-6 3-10 7-14 3-4 8-7 14-7h77c11 0 20 6 25 18l124 305 126-305c6-12 15-18 26-18h76c5 0 10 2 14 6 3 4 5 8 5 13l-3 15-265 612c-5 12-13 18-26 18h-75zm524-178c-6 0-11-2-16-6-4-5-6-10-6-16V540h-76c-6 0-11-2-16-6-4-4-6-10-6-16v-55c0-6 2-12 6-16 5-4 10-7 16-7h76v-37c0-57 15-99 46-126 30-28 76-42 138-42h193c7 0 13 2 17 6s6 10 6 16v56c0 6-3 11-7 15-4 5-10 7-16 7h-188c-25 0-42 6-52 18s-15 30-15 55v32h255c7 0 13 3 17 7s6 9 6 16v441c0 6-2 11-6 16-4 4-10 6-17 6h-77c-7 0-12-2-16-6-5-5-7-10-7-16V540h-155v364c0 6-2 11-6 16-4 4-9 6-16 6h-78zm524 0c-6 0-11-2-16-6-4-5-6-10-6-16V285c0-6 2-12 6-16 5-4 10-6 16-6h79c7 0 12 2 16 6s6 10 6 16v619c0 6-2 11-6 16-4 4-9 6-16 6h-79zm249 0c-7 0-12-2-16-6-5-5-7-10-7-16V285c0-6 2-12 7-16 4-4 9-6 16-6h78c7 0 12 2 17 6 4 4 6 10 6 16v619c0 6-2 11-6 16-5 4-10 6-17 6h-78zm435 10c-70 0-125-20-166-60s-62-97-65-170l-1-24c0-77 21-139 62-184 40-44 97-67 169-67 74 0 131 23 171 67 41 45 61 105 61 180v19c0 7-3 12-7 16-4 5-10 7-17 7h-310v7c1 35 11 64 29 87 17 22 42 34 73 34 36 0 64-15 87-43l13-13 16-2h82c6 0 10 1 15 4 4 4 6 8 6 14 0 14-9 32-27 52-18 21-43 38-76 53s-71 23-115 23zm102-296v-2c0-36-9-66-28-88a93 93 0 00-75-33c-32 0-57 11-75 33s-27 52-27 88v2h205zm250 286c-6 0-11-2-16-6-4-5-6-10-6-16V464c0-7 2-13 6-17 5-4 10-7 16-7h77c7 0 12 3 16 7 5 4 7 10 7 17v38c31-41 76-62 135-62h39c7 0 12 3 16 7s6 9 6 16v68c0 6-2 12-6 16s-9 6-16 6h-74c-29 0-52 9-69 26a93 93 0 00-25 69v256c0 6-3 11-7 16-4 4-10 6-16 6h-83z" fill="#010E25" fill-rule="nonzero"/><g fill-rule="nonzero"><path d="M0 493L642 76a411 411 0 01-215 746v336c0 22-18 40-40 40H170c-22 0-40-18-40-40V719A411 411 0 010 493z" fill="#69F0AE"/><path d="M131 104a411 411 0 01466-57L131 350V104z" fill="#11C3B3"/></g></g></svg>